<mxfile host="65bd71144e">
    <diagram id="wUMjxyhHsfHXmouC128q" name="Page-1">
        <mxGraphModel dx="898" dy="572" grid="1" gridSize="10" guides="1" tooltips="1" connect="1" arrows="1" fold="1" page="1" pageScale="1" pageWidth="827" pageHeight="1169" math="0" shadow="0">
            <root>
                <mxCell id="0"/>
                <mxCell id="1" parent="0"/>
                <mxCell id="2" value="Pool" style="swimlane;childLayout=stackLayout;resizeParent=1;resizeParentMax=0;startSize=20;horizontal=0;horizontalStack=1;" vertex="1" parent="1">
                    <mxGeometry x="90" y="80" width="380" height="480" as="geometry"/>
                </mxCell>
                <mxCell id="3" value="APPS" style="swimlane;startSize=20;" vertex="1" parent="2">
                    <mxGeometry x="20" width="120" height="480" as="geometry"/>
                </mxCell>
                <mxCell id="4" value="Lane 2" style="swimlane;startSize=20;" vertex="1" parent="2">
                    <mxGeometry x="140" width="120" height="480" as="geometry"/>
                </mxCell>
                <mxCell id="5" value="Lane 3" style="swimlane;startSize=20;" vertex="1" parent="2">
                    <mxGeometry x="260" width="120" height="480" as="geometry"/>
                </mxCell>
                <mxCell id="6" value="高通芯片启动流程" style="text;html=1;strokeColor=none;fillColor=none;align=center;verticalAlign=middle;whiteSpace=wrap;rounded=0;" vertex="1" parent="1">
                    <mxGeometry x="80" y="40" width="140" height="30" as="geometry"/>
                </mxCell>
            </root>
        </mxGraphModel>
    </diagram>
</mxfile>